<svg width="291" height="327" viewBox="0 0 291 327" fill="none" xmlns="http://www.w3.org/2000/svg">
<path d="M1 112.5V326.5H55L54.5 60L1 112.5Z" fill="black" stroke="black"/>
<path d="M120.5 1.5L75.5 47V123L120.5 78.5V1.5Z" fill="black"/>
<path d="M120.5 118.5L75.5 162.5V237.5L120.5 194V118.5Z" fill="black"/>
<path d="M132.5 221L75.5 278V326H120.5V282.5H105.5L132.5 254.5L158 282.5H143.5V326H193L260 258.5H169L132.5 221Z" fill="black"/>
<path d="M120.5 1.5L75.5 47V123L120.5 78.5V1.5Z" stroke="black"/>
<path d="M120.5 118.5L75.5 162.5V237.5L120.5 194V118.5Z" stroke="black"/>
<path d="M132.5 221L75.5 278V326H120.5V282.5H105.5L132.5 254.5L158 282.5H143.5V326H193L260 258.5H169L132.5 221Z" stroke="black"/>
<path d="M143 70V1H289L220.5 70H143Z" fill="black"/>
<path d="M143 202V139H249.5L186.5 202H143Z" fill="black"/>
<path d="M143 70V1H289L220.5 70H143Z" stroke="black"/>
<path d="M143 70V1H289L220.5 70H143Z" stroke="black"/>
<path d="M143 202V139H249.5L186.5 202H143Z" stroke="black"/>
<path d="M143 202V139H249.5L186.5 202H143Z" stroke="black"/>
</svg>
