<svg width="560" height="510" viewBox="0 0 560 510" fill="none" xmlns="http://www.w3.org/2000/svg">
<ellipse cx="280" cy="255" rx="240" ry="215" fill="#D9D9D9"/>
<ellipse cx="280" cy="255" rx="240" ry="215" fill="white"/>
<path d="M136 203.5V417.5H190L189.5 151L136 203.5Z" fill="black" stroke="black"/>
<path d="M255.5 92.5L210.5 138V214L255.5 169.5V92.5Z" fill="black"/>
<path d="M255.5 209.5L210.5 253.5V328.5L255.5 285V209.5Z" fill="black"/>
<path d="M267.5 312L210.5 369V417H255.5V373.5H240.5L267.5 345.5L293 373.5H278.5V417H328L395 349.5H304L267.5 312Z" fill="black"/>
<path d="M255.5 92.5L210.5 138V214L255.5 169.5V92.5Z" stroke="black"/>
<path d="M255.5 209.5L210.5 253.5V328.5L255.5 285V209.5Z" stroke="black"/>
<path d="M267.5 312L210.5 369V417H255.5V373.5H240.5L267.5 345.5L293 373.5H278.5V417H328L395 349.5H304L267.5 312Z" stroke="black"/>
<path d="M278 161V92H424L355.5 161H278Z" fill="black"/>
<path d="M278 293V230H384.5L321.5 293H278Z" fill="black"/>
<path d="M278 161V92H424L355.5 161H278Z" stroke="black"/>
<path d="M278 161V92H424L355.5 161H278Z" stroke="black"/>
<path d="M278 293V230H384.5L321.5 293H278Z" stroke="black"/>
<path d="M278 293V230H384.5L321.5 293H278Z" stroke="black"/>
<rect x="40" y="4" width="97.8438" height="30" rx="3" fill="white"/>
<rect x="40.5" y="4.5" width="96.8438" height="29" rx="2.5" stroke="black" stroke-opacity="0.2"/>
<path d="M46.9688 22V14H47.9375V21.1406H51.6563V22H46.9688ZM55.4688 22.125C54.9271 22.125 54.4518 21.9961 54.043 21.7383C53.6367 21.4805 53.319 21.1198 53.0898 20.6562C52.8633 20.1927 52.75 19.651 52.75 19.0312C52.75 18.4062 52.8633 17.8607 53.0898 17.3945C53.319 16.9284 53.6367 16.5664 54.043 16.3086C54.4518 16.0508 54.9271 15.9219 55.4688 15.9219C56.0104 15.9219 56.4844 16.0508 56.8906 16.3086C57.2995 16.5664 57.6172 16.9284 57.8438 17.3945C58.0729 17.8607 58.1875 18.4062 58.1875 19.0312C58.1875 19.651 58.0729 20.1927 57.8438 20.6562C57.6172 21.1198 57.2995 21.4805 56.8906 21.7383C56.4844 21.9961 56.0104 22.125 55.4688 22.125ZM55.4688 21.2969C55.8802 21.2969 56.2187 21.1914 56.4844 20.9805C56.75 20.7695 56.9466 20.4922 57.0742 20.1484C57.2018 19.8047 57.2656 19.4323 57.2656 19.0312C57.2656 18.6302 57.2018 18.2565 57.0742 17.9102C56.9466 17.5638 56.75 17.2839 56.4844 17.0703C56.2187 16.8568 55.8802 16.75 55.4688 16.75C55.0573 16.75 54.7188 16.8568 54.4531 17.0703C54.1875 17.2839 53.9909 17.5638 53.8633 17.9102C53.7357 18.2565 53.6719 18.6302 53.6719 19.0312C53.6719 19.4323 53.7357 19.8047 53.8633 20.1484C53.9909 20.4922 54.1875 20.7695 54.4531 20.9805C54.7188 21.1914 55.0573 21.2969 55.4688 21.2969ZM62.0166 24.375C61.5713 24.375 61.1885 24.3177 60.8682 24.2031C60.5479 24.0911 60.2809 23.9427 60.0674 23.7578C59.8564 23.5755 59.6885 23.3802 59.5635 23.1719L60.2979 22.6563C60.3812 22.7656 60.4867 22.8906 60.6143 23.0312C60.7419 23.1745 60.9163 23.2982 61.1377 23.4023C61.3617 23.5091 61.6546 23.5625 62.0166 23.5625C62.501 23.5625 62.9007 23.4453 63.2158 23.2109C63.5309 22.9766 63.6885 22.6094 63.6885 22.1094V20.8906H63.6104C63.5426 21 63.4463 21.1354 63.3213 21.2969C63.1989 21.4557 63.0218 21.5977 62.79 21.7227C62.5609 21.8451 62.251 21.9062 61.8604 21.9062C61.376 21.9062 60.9411 21.7917 60.5557 21.5625C60.1729 21.3333 59.8695 21 59.6455 20.5625C59.4242 20.125 59.3135 19.5937 59.3135 18.9687C59.3135 18.3542 59.4215 17.819 59.6377 17.3633C59.8538 16.9049 60.1546 16.5508 60.54 16.3008C60.9255 16.0482 61.3708 15.9219 61.876 15.9219C62.2666 15.9219 62.5765 15.987 62.8057 16.1172C63.0374 16.2448 63.2145 16.3906 63.3369 16.5547C63.4619 16.7161 63.5583 16.849 63.626 16.9531H63.7197V16H64.6104V22.1719C64.6104 22.6875 64.4932 23.1068 64.2588 23.4297C64.027 23.7552 63.7145 23.9935 63.3213 24.1445C62.9307 24.2982 62.4958 24.375 62.0166 24.375ZM61.9854 21.0781C62.3551 21.0781 62.6676 20.9935 62.9229 20.8242C63.1781 20.6549 63.3721 20.4115 63.5049 20.0938C63.6377 19.776 63.7041 19.3958 63.7041 18.9531C63.7041 18.5208 63.639 18.1393 63.5088 17.8086C63.3786 17.4779 63.1859 17.2187 62.9307 17.0312C62.6755 16.8437 62.3604 16.75 61.9854 16.75C61.5947 16.75 61.2692 16.849 61.0088 17.0469C60.751 17.2448 60.557 17.5104 60.4268 17.8438C60.2992 18.1771 60.2354 18.5469 60.2354 18.9531C60.2354 19.3698 60.3005 19.7383 60.4307 20.0586C60.5635 20.3763 60.7588 20.6263 61.0166 20.8086C61.277 20.9883 61.5999 21.0781 61.9854 21.0781ZM68.7354 22.125C68.1937 22.125 67.7184 21.9961 67.3096 21.7383C66.9033 21.4805 66.5856 21.1198 66.3564 20.6562C66.1299 20.1927 66.0166 19.651 66.0166 19.0312C66.0166 18.4062 66.1299 17.8607 66.3564 17.3945C66.5856 16.9284 66.9033 16.5664 67.3096 16.3086C67.7184 16.0508 68.1937 15.9219 68.7354 15.9219C69.277 15.9219 69.751 16.0508 70.1572 16.3086C70.5661 16.5664 70.8838 16.9284 71.1104 17.3945C71.3395 17.8607 71.4541 18.4062 71.4541 19.0312C71.4541 19.651 71.3395 20.1927 71.1104 20.6562C70.8838 21.1198 70.5661 21.4805 70.1572 21.7383C69.751 21.9961 69.277 22.125 68.7354 22.125ZM68.7354 21.2969C69.1468 21.2969 69.4854 21.1914 69.751 20.9805C70.0166 20.7695 70.2132 20.4922 70.3408 20.1484C70.4684 19.8047 70.5322 19.4323 70.5322 19.0312C70.5322 18.6302 70.4684 18.2565 70.3408 17.9102C70.2132 17.5638 70.0166 17.2839 69.751 17.0703C69.4854 16.8568 69.1468 16.75 68.7354 16.75C68.3239 16.75 67.9854 16.8568 67.7197 17.0703C67.4541 17.2839 67.2575 17.5638 67.1299 17.9102C67.0023 18.2565 66.9385 18.6302 66.9385 19.0312C66.9385 19.4323 67.0023 19.8047 67.1299 20.1484C67.2575 20.4922 67.4541 20.7695 67.7197 20.9805C67.9854 21.1914 68.3239 21.2969 68.7354 21.2969ZM79.3926 17.5703V18.4297H75.8926V17.5703H79.3926ZM84.2334 22V14H86.9365C87.5615 14 88.0745 14.1068 88.4756 14.3203C88.8766 14.5312 89.1735 14.8216 89.3662 15.1914C89.5589 15.5612 89.6553 15.9818 89.6553 16.4531C89.6553 16.9245 89.5589 17.3424 89.3662 17.707C89.1735 18.0716 88.8779 18.3581 88.4795 18.5664C88.0811 18.7721 87.5719 18.875 86.9521 18.875H84.7646V18H86.9209C87.348 18 87.6917 17.9375 87.9521 17.8125C88.2152 17.6875 88.4053 17.5104 88.5225 17.2812C88.6423 17.0495 88.7021 16.7734 88.7021 16.4531C88.7021 16.1328 88.6423 15.8529 88.5225 15.6133C88.4027 15.3737 88.2113 15.1888 87.9482 15.0586C87.6852 14.9258 87.3376 14.8594 86.9053 14.8594H85.2021V22H84.2334ZM87.999 18.4062L89.9678 22H88.8428L86.9053 18.4062H87.999ZM93.5957 22.125C93.0176 22.125 92.5189 21.9974 92.0996 21.7422C91.6829 21.4844 91.3613 21.125 91.1348 20.6641C90.9108 20.2005 90.7988 19.6615 90.7988 19.0469C90.7988 18.4323 90.9108 17.8906 91.1348 17.4219C91.3613 16.9505 91.6764 16.5833 92.0801 16.3203C92.4863 16.0547 92.9603 15.9219 93.502 15.9219C93.8145 15.9219 94.123 15.974 94.4277 16.0781C94.7324 16.1823 95.0098 16.3516 95.2598 16.5859C95.5098 16.8177 95.709 17.125 95.8574 17.5078C96.0059 17.8906 96.0801 18.362 96.0801 18.9219V19.3125H91.4551V18.5156H95.1426C95.1426 18.1771 95.0749 17.875 94.9395 17.6094C94.8066 17.3437 94.6165 17.1341 94.3691 16.9805C94.1243 16.8268 93.8353 16.75 93.502 16.75C93.1348 16.75 92.8171 16.8411 92.5488 17.0234C92.2832 17.2031 92.0788 17.4375 91.9355 17.7266C91.7923 18.0156 91.7207 18.3255 91.7207 18.6562V19.1875C91.7207 19.6406 91.7988 20.0247 91.9551 20.3398C92.1139 20.6523 92.334 20.8906 92.6152 21.0547C92.8965 21.2161 93.2233 21.2969 93.5957 21.2969C93.8379 21.2969 94.0566 21.263 94.252 21.1953C94.4499 21.125 94.6204 21.0208 94.7637 20.8828C94.9069 20.7422 95.0176 20.5677 95.0957 20.3594L95.9863 20.6094C95.8926 20.9115 95.735 21.1771 95.5137 21.4062C95.2923 21.6328 95.0189 21.8099 94.6934 21.9375C94.3678 22.0625 94.002 22.125 93.5957 22.125ZM102.206 16L99.9873 22H99.0498L96.8311 16H97.8311L99.4873 20.7812H99.5498L101.206 16H102.206ZM105.724 22.125C105.146 22.125 104.647 21.9974 104.228 21.7422C103.811 21.4844 103.489 21.125 103.263 20.6641C103.039 20.2005 102.927 19.6615 102.927 19.0469C102.927 18.4323 103.039 17.8906 103.263 17.4219C103.489 16.9505 103.804 16.5833 104.208 16.3203C104.614 16.0547 105.088 15.9219 105.63 15.9219C105.942 15.9219 106.251 15.974 106.556 16.0781C106.86 16.1823 107.138 16.3516 107.388 16.5859C107.638 16.8177 107.837 17.125 107.985 17.5078C108.134 17.8906 108.208 18.362 108.208 18.9219V19.3125H103.583V18.5156H107.271C107.271 18.1771 107.203 17.875 107.067 17.6094C106.935 17.3437 106.744 17.1341 106.497 16.9805C106.252 16.8268 105.963 16.75 105.63 16.75C105.263 16.75 104.945 16.8411 104.677 17.0234C104.411 17.2031 104.207 17.4375 104.063 17.7266C103.92 18.0156 103.849 18.3255 103.849 18.6562V19.1875C103.849 19.6406 103.927 20.0247 104.083 20.3398C104.242 20.6523 104.462 20.8906 104.743 21.0547C105.024 21.2161 105.351 21.2969 105.724 21.2969C105.966 21.2969 106.185 21.263 106.38 21.1953C106.578 21.125 106.748 21.0208 106.892 20.8828C107.035 20.7422 107.146 20.5677 107.224 20.3594L108.114 20.6094C108.021 20.9115 107.863 21.1771 107.642 21.4062C107.42 21.6328 107.147 21.8099 106.821 21.9375C106.496 22.0625 106.13 22.125 105.724 22.125ZM109.61 22V16H110.501V16.9062H110.563C110.673 16.6094 110.871 16.3685 111.157 16.1836C111.444 15.9987 111.767 15.9062 112.126 15.9062C112.194 15.9062 112.278 15.9076 112.38 15.9102C112.481 15.9128 112.558 15.9167 112.61 15.9219V16.8594C112.579 16.8516 112.507 16.8398 112.396 16.8242C112.286 16.806 112.17 16.7969 112.048 16.7969C111.756 16.7969 111.496 16.8581 111.267 16.9805C111.04 17.1003 110.86 17.2669 110.728 17.4805C110.597 17.6914 110.532 17.9323 110.532 18.2031V22H109.61ZM117.953 17.3437L117.125 17.5781C117.073 17.4401 116.996 17.306 116.895 17.1758C116.796 17.043 116.66 16.9336 116.488 16.8477C116.316 16.7617 116.096 16.7187 115.828 16.7187C115.461 16.7187 115.155 16.8034 114.91 16.9727C114.668 17.1393 114.547 17.3516 114.547 17.6094C114.547 17.8385 114.63 18.0195 114.797 18.1523C114.964 18.2852 115.224 18.3958 115.578 18.4844L116.469 18.7031C117.005 18.8333 117.405 19.0326 117.668 19.3008C117.931 19.5664 118.063 19.9089 118.063 20.3281C118.063 20.6719 117.964 20.9792 117.766 21.25C117.57 21.5208 117.297 21.7344 116.945 21.8906C116.594 22.0469 116.185 22.125 115.719 22.125C115.107 22.125 114.6 21.9922 114.199 21.7266C113.798 21.4609 113.544 21.0729 113.438 20.5625L114.313 20.3437C114.396 20.6667 114.553 20.9089 114.785 21.0703C115.02 21.2318 115.326 21.3125 115.703 21.3125C116.133 21.3125 116.474 21.2214 116.727 21.0391C116.982 20.8542 117.109 20.6328 117.109 20.375C117.109 20.1667 117.036 19.9922 116.891 19.8516C116.745 19.7083 116.521 19.6016 116.219 19.5312L115.219 19.2969C114.669 19.1667 114.266 18.9648 114.008 18.6914C113.753 18.4154 113.625 18.0703 113.625 17.6562C113.625 17.3177 113.72 17.0182 113.91 16.7578C114.103 16.4974 114.365 16.293 114.695 16.1445C115.029 15.9961 115.406 15.9219 115.828 15.9219C116.422 15.9219 116.888 16.0521 117.227 16.3125C117.568 16.5729 117.81 16.9167 117.953 17.3437ZM121.966 22.125C121.388 22.125 120.889 21.9974 120.47 21.7422C120.053 21.4844 119.731 21.125 119.505 20.6641C119.281 20.2005 119.169 19.6615 119.169 19.0469C119.169 18.4323 119.281 17.8906 119.505 17.4219C119.731 16.9505 120.047 16.5833 120.45 16.3203C120.856 16.0547 121.33 15.9219 121.872 15.9219C122.185 15.9219 122.493 15.974 122.798 16.0781C123.103 16.1823 123.38 16.3516 123.63 16.5859C123.88 16.8177 124.079 17.125 124.228 17.5078C124.376 17.8906 124.45 18.362 124.45 18.9219V19.3125H119.825V18.5156H123.513C123.513 18.1771 123.445 17.875 123.31 17.6094C123.177 17.3437 122.987 17.1341 122.739 16.9805C122.494 16.8268 122.205 16.75 121.872 16.75C121.505 16.75 121.187 16.8411 120.919 17.0234C120.653 17.2031 120.449 17.4375 120.306 17.7266C120.162 18.0156 120.091 18.3255 120.091 18.6562V19.1875C120.091 19.6406 120.169 20.0247 120.325 20.3398C120.484 20.6523 120.704 20.8906 120.985 21.0547C121.267 21.2161 121.593 21.2969 121.966 21.2969C122.208 21.2969 122.427 21.263 122.622 21.1953C122.82 21.125 122.991 21.0208 123.134 20.8828C123.277 20.7422 123.388 20.5677 123.466 20.3594L124.356 20.6094C124.263 20.9115 124.105 21.1771 123.884 21.4062C123.662 21.6328 123.389 21.8099 123.063 21.9375C122.738 22.0625 122.372 22.125 121.966 22.125ZM128.118 22.125C127.618 22.125 127.177 21.9987 126.794 21.7461C126.411 21.4909 126.112 21.1315 125.896 20.668C125.679 20.2018 125.571 19.651 125.571 19.0156C125.571 18.3854 125.679 17.8385 125.896 17.375C126.112 16.9115 126.412 16.5534 126.798 16.3008C127.183 16.0482 127.629 15.9219 128.134 15.9219C128.524 15.9219 128.833 15.987 129.06 16.1172C129.289 16.2448 129.463 16.3906 129.583 16.5547C129.705 16.7161 129.8 16.849 129.868 16.9531H129.946V14H130.868V22H129.978V21.0781H129.868C129.8 21.1875 129.704 21.3255 129.579 21.4922C129.454 21.6562 129.276 21.8034 129.044 21.9336C128.812 22.0612 128.504 22.125 128.118 22.125ZM128.243 21.2969C128.613 21.2969 128.925 21.2005 129.181 21.0078C129.436 20.8125 129.63 20.543 129.763 20.1992C129.896 19.8529 129.962 19.4531 129.962 19C129.962 18.5521 129.897 18.1602 129.767 17.8242C129.636 17.4857 129.444 17.2227 129.188 17.0352C128.933 16.8451 128.618 16.75 128.243 16.75C127.853 16.75 127.527 16.8503 127.267 17.0508C127.009 17.2487 126.815 17.5182 126.685 17.8594C126.557 18.1979 126.493 18.5781 126.493 19C126.493 19.4271 126.558 19.8151 126.688 20.1641C126.821 20.5104 127.017 20.7865 127.274 20.9922C127.535 21.1953 127.858 21.2969 128.243 21.2969Z" fill="black"/>
</svg>
