<svg width="551" height="490" viewBox="0 0 551 490" fill="none" xmlns="http://www.w3.org/2000/svg">
<rect width="551" height="490" fill="white"/>
<path d="M137 179.5V393.5H191L190.5 127L137 179.5Z" fill="black" stroke="black"/>
<path d="M256.5 68.5L211.5 114V190L256.5 145.5V68.5Z" fill="black"/>
<path d="M256.5 185.5L211.5 229.5V304.5L256.5 261V185.5Z" fill="black"/>
<path d="M268.5 288L211.5 345V393H256.5V349.5H241.5L268.5 321.5L294 349.5H279.5V393H329L396 325.5H305L268.5 288Z" fill="black"/>
<path d="M256.5 68.5L211.5 114V190L256.5 145.5V68.5Z" stroke="black"/>
<path d="M256.5 185.5L211.5 229.5V304.5L256.5 261V185.5Z" stroke="black"/>
<path d="M268.5 288L211.5 345V393H256.5V349.5H241.5L268.5 321.5L294 349.5H279.5V393H329L396 325.5H305L268.5 288Z" stroke="black"/>
<path d="M279 137V68H425L356.5 137H279Z" fill="black"/>
<path d="M279 269V206H385.5L322.5 269H279Z" fill="black"/>
<path d="M279 137V68H425L356.5 137H279Z" stroke="black"/>
<path d="M279 137V68H425L356.5 137H279Z" stroke="black"/>
<path d="M279 269V206H385.5L322.5 269H279Z" stroke="black"/>
<path d="M279 269V206H385.5L322.5 269H279Z" stroke="black"/>
</svg>
